<svg 
          width="24.99995231628418" 
          height="16.66666603088379" fill="none" 
          xmlns="http://www.w3.org/2000/svg">
          <path d="M 24.848935339185925 7.699652219149812 C 22.495202720165253 3.107204583634939 17.835479643609787 0 12.49997615814209 0 C 7.164472672674391 0 2.503448517786132 3.1093751860327075 0.15101792911688486 7.700086670766268 C 0.05173056075970331 7.896488231196841 -7.709882115452476e-17 8.11347853899904 0 8.333550241250123 C -4.0476881106125496e-16 8.553621943501206 0.05173056075970331 8.770612251303405 0.15101792911688486 8.967013811733977 C 2.5047505481375585 13.55946144724885 7.164472672674391 16.66666603088379 12.49997615814209 16.66666603088379 C 17.835479643609787 16.66666603088379 22.496504750516678 13.557290844851082 24.848935339185925 8.966579360117521 C 24.948222707543106 8.770177799686948 24.99995231628418 8.55318749188475 24.99995231628418 8.333115789633666 C 24.99995231628418 8.113044087382583 24.948222707543106 7.8960537795803845 24.848935339185925 7.699652219149812 L 24.848935339185925 7.699652219149812 Z M 12.49997615814209 14.583332777023315 C 11.26384296351009 14.583332777023315 10.055469059281878 14.216776891624676 9.02766187985738 13.530018078400644 C 7.999854700432882 12.843259265176613 7.1987768842114335 11.867142512700667 6.725729174084133 10.725104399677093 C 6.252681463956833 9.58306628665352 6.128910639219813 8.326399919324018 6.370068258709377 7.114018725178312 C 6.611225878198941 5.9016375310326055 7.2064804534117375 4.787993827933434 8.080558644400702 3.9139156702879063 C 8.954636835389666 3.0398375126423787 10.068279918697145 2.444582960136742 11.280661159091526 2.2034253498466114 C 12.493042399485907 1.9622677395564807 13.749709477027256 2.0860385595720174 14.891747633616129 2.55908625165398 C 16.033785790205002 3.0321339437359427 17.009902579916847 3.8332117293986983 17.69666141933865 4.861018869615464 C 18.383420258760452 5.888826009832229 18.74997615814209 7.097199867964633 18.74997615814209 8.333333015441895 C 18.75037548537269 9.154206992995512 18.588987530933483 9.967112078199335 18.275037076738144 10.725577263174273 C 17.961086622542805 11.48404244814921 17.500730065835846 12.17319550535673 16.92028443018595 12.75364111886438 C 16.339838794536057 13.334086732372029 15.650685711039436 13.794443271517778 14.892220497131348 14.10839371373686 C 14.133755283223259 14.42234415595594 13.320850167009565 14.583732104238683 12.49997615814209 14.583332777023315 L 12.49997615814209 14.583332777023315 Z M 12.49997615814209 4.166666507720947 C 12.128071404165691 4.171864028019829 11.758566482199562 4.22719459791222 11.401451958550346 4.331162737823206 C 11.69581798215707 4.731194825624868 11.837077660796544 5.223474866236472 11.799612310197618 5.7187257015714295 C 11.762146959598693 6.213976536906387 11.54843701256646 6.67940286481803 11.197241147359211 7.030598716628219 C 10.846045282151962 7.3817945684384085 10.380619598759544 7.595503182770643 9.885368744532267 7.632968531940378 C 9.390117890304989 7.670433881110113 8.89783783091439 7.529174870133076 8.497805727852715 7.2348088577555245 C 8.270013539327515 8.074039492299363 8.311133355730108 8.963574789430083 8.615376551946003 9.778211803419708 C 8.919619748161898 10.592848817409333 9.4716673096021 11.291568129993578 10.193817483054266 11.776022991671198 C 10.915967656506432 12.260477853348817 11.771858069631786 12.506275762667913 12.641020615895588 12.478818682312976 C 13.51018316215939 12.45136160195804 14.348853006958961 12.152032835644405 15.038985676235622 11.622963567917395 C 15.729118345512283 11.093894300190385 16.235963876048725 10.361723868823503 16.488182544708252 9.52950812121253 C 16.74040121336778 8.697292373601556 16.725293257170254 7.806935029109667 16.444985071818035 6.98375542808617 C 16.164676886465816 6.160575827062672 15.633282976018057 5.446022955118991 14.925597773657904 4.940672527033257 C 14.21791257129775 4.435322098947523 13.369569844669766 4.164619566038881 12.49997615814209 4.166666507720947 L 12.49997615814209 4.166666507720947 Z" fill="rgb(249.00000035762787,224.000001847744,142.00000673532486)"/>
        </svg>